<svg width="98" height="32" viewBox="0 0 98 32" fill="none" xmlns="http://www.w3.org/2000/svg">
<g clip-path="url(#clip0_15800_88735)">
<path d="M20.0981 1.00941L18.447 10.3693H12.7157C7.36866 10.3693 2.27211 14.6998 1.3275 20.0447L0.927674 22.3197C-0.0125386 27.6647 3.55503 31.9952 8.90203 31.9952H13.6822C17.5793 31.9952 21.2919 28.8417 21.9773 24.9462L26.3797 0L20.0981 1.00941ZM16.0314 24.0633C15.8205 25.2667 14.7367 26.2462 13.5329 26.2462H10.6287C8.22542 26.2462 6.61738 24.2961 7.03914 21.8893L7.28959 20.4707C7.71575 18.0683 10.0092 16.1139 12.4125 16.1139H17.4337L16.0314 24.0633ZM64.2374 31.9947L67.9983 10.6675H73.9471L70.1863 31.9947H64.2374ZM64.8809 10.9134C64.5827 12.605 64.2832 14.2967 63.985 15.9883C61.1667 15.1129 58.259 15.3917 57.3656 15.5697C56.4009 21.0461 55.4348 26.5237 54.4687 32H48.5159C49.3243 27.4178 52.086 11.7692 52.086 11.7692C54.0221 10.9677 58.7767 9.34117 64.8809 10.9134ZM40.7608 10.3657H36.1301C31.6178 10.3657 27.3167 14.0197 26.5213 18.5302L25.5856 23.8313C24.7903 28.3418 27.8 31.9959 32.3122 31.9959H42.1626L43.1731 26.2645H33.9157C32.4132 26.2645 31.407 25.0478 31.6751 23.5414L31.7058 23.3614H46.6308L47.4831 18.5302C48.2782 14.0197 45.2687 10.3657 40.7565 10.3657H40.7608ZM41.5122 18.0735L41.4771 18.3809H32.6022L32.6505 18.1086C32.9183 16.6066 34.2893 15.2846 35.7961 15.2846H39.2627C40.7522 15.2846 41.7584 16.5846 41.5122 18.0735ZM91.2051 10.6675H97.1583C95.1304 16.0571 90.4829 25.2252 85.981 31.9947H80.0278C77.9613 25.5518 76.6269 16.5746 76.3723 10.6675H82.3257C82.4331 12.5944 83.296 19.7416 84.2809 24.7347C86.9819 19.8771 89.9598 13.504 91.2006 10.6675H91.2051Z" fill="#FF444F"/>
</g>
<defs>
<clipPath id="clip0_15800_88735">
<rect width="96.4444" height="32" fill="white" transform="translate(0.777344)"/>
</clipPath>
</defs>
</svg>
