<svg width="16" height="24" viewBox="0 0 16 24" fill="none" xmlns="http://www.w3.org/2000/svg">
<g clip-path="url(#clip0_21104_283159)">
<path d="M8 18.5C8.21875 18.5 8.84375 18.2812 9.46875 17C9.75 16.4375 10 15.7812 10.1562 15H5.8125C6 15.7812 6.21875 16.4375 6.5 17C7.15625 18.2812 7.75 18.5 8 18.5ZM5.5625 13.5H10.4062C10.4688 13.0312 10.5 12.5312 10.5 12C10.5 11.5 10.4688 11 10.4062 10.5H5.5625C5.5 11 5.5 11.5 5.5 12C5.5 12.5312 5.5 13.0312 5.5625 13.5ZM5.8125 9H10.1562C10 8.25 9.75 7.59375 9.46875 7.03125C8.84375 5.75 8.21875 5.5 8 5.5C7.75 5.5 7.15625 5.75 6.5 7.03125C6.21875 7.59375 6 8.25 5.8125 9ZM11.9062 10.5C11.9688 11 11.9688 11.5 11.9688 12C11.9688 12.5312 11.9688 13.0312 11.9062 13.5H14.3125C14.4375 13.0312 14.5 12.5312 14.5 12C14.5 11.5 14.4375 11 14.3125 10.5H11.9062ZM13.75 9C13.0938 7.71875 12 6.6875 10.6875 6.09375C11.125 6.90625 11.4688 7.90625 11.6875 9H13.75ZM4.28125 9C4.5 7.90625 4.84375 6.90625 5.28125 6.09375C3.96875 6.6875 2.875 7.71875 2.21875 9H4.28125ZM1.65625 10.5C1.5625 11 1.5 11.5 1.5 12C1.5 12.5312 1.53125 13.0312 1.65625 13.5H4.0625C4 13.0312 4 12.5312 4 12C4 11.5 4 11 4.0625 10.5H1.65625ZM10.6875 17.9375C12 17.3438 13.0938 16.3125 13.75 15H11.6875C11.4688 16.125 11.125 17.125 10.6875 17.9375ZM5.28125 17.9375C4.84375 17.125 4.5 16.125 4.28125 15H2.21875C2.875 16.3125 3.96875 17.3438 5.28125 17.9375ZM8 20C5.125 20 2.5 18.5 1.0625 16C-0.375 13.5312 -0.375 10.5 1.0625 8C2.5 5.53125 5.125 4 8 4C10.8438 4 13.4688 5.53125 14.9062 8C16.3438 10.5 16.3438 13.5312 14.9062 16C13.4688 18.5 10.8438 20 8 20Z" fill="#00080A"/>
</g>
<defs>
<clipPath id="clip0_21104_283159">
<rect width="16" height="24" fill="white"/>
</clipPath>
</defs>
</svg>
