<svg width="72" height="24" viewBox="0 0 72 24" fill="none" xmlns="http://www.w3.org/2000/svg">
<path d="M14.3316 0.749035L13.1069 7.69461H8.85554C4.88927 7.69461 1.10878 10.908 0.408092 14.8743L0.111511 16.5625C-0.585914 20.5288 2.06041 23.7422 6.02668 23.7422H9.57253C12.4633 23.7422 15.2172 21.4021 15.7256 18.5115L18.9911 0L14.3316 0.749035ZM11.315 17.8563C11.1586 18.7493 10.3547 19.4761 9.46172 19.4761H7.30749C5.52479 19.4761 4.33199 18.029 4.64484 16.2431L4.83062 15.1904C5.14673 13.4077 6.84796 11.9574 8.63066 11.9574H12.3552L11.315 17.8563ZM47.0731 23.7419L49.8628 7.91587H54.2755L51.4858 23.7419H47.0697H47.0731ZM47.5503 8.09836C47.3292 9.35365 47.107 10.6089 46.8858 11.8642C44.7953 11.2146 42.6384 11.4215 41.9757 11.5536C41.2601 15.6173 40.5435 19.682 39.8269 23.7458H35.4112C36.0109 20.3456 38.0594 8.73338 38.0594 8.73338C39.4956 8.13866 43.0224 6.93167 47.5503 8.09836ZM29.6587 7.69192H26.2237C22.8767 7.69192 19.6862 10.4034 19.0962 13.7505L18.4021 17.6842C17.8121 21.0312 20.0447 23.7428 23.3917 23.7428H30.6985L31.4481 19.4897H24.5811C23.4666 19.4897 22.7203 18.5869 22.9191 17.469L22.9419 17.3354H34.0129L34.6451 13.7505C35.2349 10.4034 33.0026 7.69192 29.6555 7.69192H29.6587ZM30.216 13.4115L30.19 13.6397H23.6068L23.6427 13.4376C23.8413 12.323 24.8583 11.342 25.976 11.342H28.5474C29.6523 11.342 30.3987 12.3067 30.216 13.4115ZM71.4929 7.91587C69.9887 11.9152 66.5413 18.7185 63.2019 23.7419H58.786C57.2531 18.9608 56.2632 12.2993 56.0744 7.91587H60.4904C60.5701 9.34574 61.2102 14.6494 61.9408 18.3545C63.9444 14.7499 66.1532 10.0207 67.0736 7.91587H71.4929Z" fill="#FF444F"/>
</svg>
